<?xml version="1.0" standalone="no"?><!DOCTYPE svg PUBLIC "-//W3C//DTD SVG 1.1//EN" "http://www.w3.org/Graphics/SVG/1.1/DTD/svg11.dtd"><svg class="icon" width="64px" height="64.00px" viewBox="0 0 1024 1024" version="1.1" xmlns="http://www.w3.org/2000/svg"><path fill="#e6e6e6" d="M480.2 525.1c61.4 0 119.1-23.9 162.5-67.3 43.4-43.4 67.3-101.1 67.3-162.5s-23.9-119.1-67.3-162.5c-43.4-43.4-101.1-67.3-162.5-67.3s-119.1 23.9-162.5 67.3c-43.4 43.4-67.3 101.1-67.3 162.5s23.9 119.1 67.3 162.5c43.4 43.4 101.1 67.3 162.5 67.3z m0-387.8c87 0 157.9 70.8 157.9 157.9s-70.8 157.9-157.9 157.9-157.9-70.8-157.9-157.9 70.9-157.9 157.9-157.9zM890.7 600.4c19.9 0 36-16.1 36-36s-16.1-36-36-36h-72.3v-45.1h72.3c19.9 0 36-16.1 36-36s-16.1-36-36-36H782.4c-19.9 0-36 16.1-36 36v226.9c-62.2 16-108.3 72.6-108.3 139.8 0 79.6 64.7 144.3 144.3 144.3S926.7 893.6 926.7 814c0-67.2-46.1-123.7-108.3-139.8v-73.7h72.3z m-36 213.5c0 39.9-32.4 72.3-72.3 72.3s-72.3-32.4-72.3-72.3 32.4-72.3 72.3-72.3 72.3 32.4 72.3 72.3zM667.7 605.5c0-19.9-16.1-36-36-36h-342c-50.9 0-98.9 18.6-135.2 52.3-37 34.4-57.3 80.3-57.3 129.3v139.1c0 19.9 16.1 36 36 36s36-16.1 36-36V751.1c0-60.4 54-109.6 120.5-109.6h342c19.9 0 36-16.1 36-36z" /></svg>