<?xml version="1.0" standalone="no"?><!DOCTYPE svg PUBLIC "-//W3C//DTD SVG 1.1//EN" "http://www.w3.org/Graphics/SVG/1.1/DTD/svg11.dtd"><svg t="1654584966127" class="icon" viewBox="0 0 1024 1024" version="1.1" xmlns="http://www.w3.org/2000/svg" p-id="4473" xmlns:xlink="http://www.w3.org/1999/xlink" width="48" height="48"><defs><style type="text/css"></style></defs><path d="M721.066667 337.066667c-8.533333 0-17.066667-2.133333-23.466667-8.533334-12.8-12.8-12.8-32 0-44.8l185.6-187.733333c12.8-12.8 32-12.8 44.8 0 12.8 12.8 12.8 32 0 44.8l-185.6 187.733333c-4.266667 6.4-12.8 8.533333-21.333333 8.533334z" p-id="4474"></path><path d="M876.8 356.266667h-155.733333c-29.866667 0-53.333333-23.466667-53.333334-53.333334V147.2c0-17.066667 14.933333-32 32-32s32 14.933333 32 32v145.066667h145.066667c17.066667 0 32 14.933333 32 32s-14.933333 32-32 32zM305.066667 337.066667c-8.533333 0-17.066667-2.133333-23.466667-8.533334L93.866667 140.8c-10.666667-12.8-10.666667-34.133333 0-46.933333 12.8-10.666667 34.133333-10.666667 46.933333 0l187.733333 187.733333c12.8 12.8 12.8 32 0 44.8-6.4 8.533333-14.933333 10.666667-23.466666 10.666667z" p-id="4475"></path><path d="M302.933333 356.266667H147.2c-17.066667 0-32-14.933333-32-32s14.933333-32 32-32h145.066667V147.2c0-17.066667 14.933333-32 32-32s32 14.933333 32 32v155.733333c0 29.866667-23.466667 53.333333-53.333334 53.333334zM906.666667 938.666667c-8.533333 0-17.066667-2.133333-23.466667-8.533334l-185.6-185.6c-12.8-12.8-12.8-32 0-44.8s32-12.8 44.8 0l185.6 185.6c12.8 12.8 12.8 32 0 44.8-4.266667 6.4-12.8 8.533333-21.333333 8.533334z" p-id="4476"></path><path d="M699.733333 908.8c-17.066667 0-32-14.933333-32-32v-155.733333c0-29.866667 23.466667-53.333333 53.333334-53.333334h155.733333c17.066667 0 32 14.933333 32 32s-14.933333 32-32 32h-145.066667v145.066667c0 17.066667-14.933333 32-32 32zM117.333333 938.666667c-8.533333 0-17.066667-2.133333-23.466666-8.533334-12.8-12.8-12.8-32 0-44.8l187.733333-185.6c12.8-12.8 32-12.8 44.8 0 12.8 12.8 12.8 32 0 44.8l-187.733333 185.6c-4.266667 6.4-12.8 8.533333-21.333334 8.533334z" p-id="4477"></path><path d="M324.266667 908.8c-17.066667 0-32-14.933333-32-32v-145.066667H147.2c-17.066667 0-32-14.933333-32-32s14.933333-32 32-32h155.733333c29.866667 0 53.333333 23.466667 53.333334 53.333334v155.733333c0 17.066667-14.933333 32-32 32z m-21.333334-177.066667z" p-id="4478"></path></svg>