<?xml version="1.0" standalone="no"?><!DOCTYPE svg PUBLIC "-//W3C//DTD SVG 1.1//EN" "http://www.w3.org/Graphics/SVG/1.1/DTD/svg11.dtd"><svg t="1654585318122" class="icon" viewBox="0 0 1024 1024" version="1.1" xmlns="http://www.w3.org/2000/svg" p-id="6328" xmlns:xlink="http://www.w3.org/1999/xlink" width="48" height="48"><defs><style type="text/css"></style></defs><path d="M918.8 208H106.5c-17.7 0-32-14.3-32-32s14.3-32 32-32h812.3c17.7 0 32 14.3 32 32s-14.4 32-32 32zM918.8 543.3H328.2c-17.7 0-32-14.3-32-32s14.3-32 32-32h590.6c17.7 0 32 14.3 32 32s-14.4 32-32 32zM917.5 880H105.2c-17.7 0-32-14.3-32-32s14.3-32 32-32h812.3c17.7 0 32 14.3 32 32s-14.3 32-32 32zM245.6 685.3c-8.2 0-16.4-3.1-22.6-9.4L85.3 538.2c-6-6-9.4-14.1-9.4-22.6 0-8.5 3.4-16.6 9.4-22.6l146.4-146.4c12.5-12.5 32.8-12.5 45.3 0s12.5 32.8 0 45.3L153.2 515.6l115.1 115.1c12.5 12.5 12.5 32.8 0 45.3-6.3 6.2-14.5 9.3-22.7 9.3z" p-id="6329"></path></svg>