<?xml version="1.0" standalone="no"?><!DOCTYPE svg PUBLIC "-//W3C//DTD SVG 1.1//EN" "http://www.w3.org/Graphics/SVG/1.1/DTD/svg11.dtd"><svg class="icon" width="64px" height="64.00px" viewBox="0 0 1024 1024" version="1.1" xmlns="http://www.w3.org/2000/svg"><path fill="#333" d="M637.5424 672.768a24.65792 24.65792 0 0 0 34.816 0l143.5648-143.5648s0-0.2048 0.2048-0.2048c2.2528-2.2528 3.8912-4.9152 5.12-7.7824 2.4576-5.9392 2.4576-12.6976 0-18.8416-1.2288-2.8672-3.072-5.5296-5.12-7.7824 0 0 0-0.2048-0.2048-0.2048l-143.1552-143.1552a24.59648 24.59648 0 1 0-34.816 34.816l101.1712 101.1712h-327.68c-13.5168 0-24.576 11.0592-24.576 24.576s11.0592 24.576 24.576 24.576H739.328l-101.7856 101.7856c-9.4208 9.4208-9.4208 24.9856 0 34.6112zM833.536 327.68v-81.92c0-70.0416-56.9344-126.976-126.976-126.976h-409.6c-70.0416 0-126.976 56.9344-126.976 126.976v532.48c0 70.0416 56.9344 126.976 126.976 126.976h409.6c70.0416 0 126.976-56.9344 126.976-126.976v-81.92c0-13.5168-11.0592-24.576-24.576-24.576s-24.576 11.0592-24.576 24.576v81.92c0 43.008-34.816 77.824-77.824 77.824h-409.6c-43.008 0-77.824-34.816-77.824-77.824V245.76c0-43.008 34.816-77.824 77.824-77.824h409.6c43.008 0 77.824 34.816 77.824 77.824v81.92c0 13.5168 11.0592 24.576 24.576 24.576s24.576-11.0592 24.576-24.576z" /></svg>