<?xml version="1.0" standalone="no"?><!DOCTYPE svg PUBLIC "-//W3C//DTD SVG 1.1//EN" "http://www.w3.org/Graphics/SVG/1.1/DTD/svg11.dtd"><svg class="icon" width="64px" height="64.00px" viewBox="0 0 1024 1024" version="1.1" xmlns="http://www.w3.org/2000/svg"><path fill="#e6e6e6" d="M332.3904 813.4656h545.1776c17.8176 0 31.3344-13.312 31.3344-31.3344s-13.312-31.3344-31.3344-31.3344H332.3904c-17.8176 0-31.3344 13.312-31.3344 31.3344 0 13.312 13.5168 31.3344 31.3344 31.3344z m0-268.288h545.1776c22.3232 0 35.84-13.312 35.84-31.3344s-13.312-31.3344-31.3344-31.3344H332.3904c-17.8176-4.5056-31.3344 9.0112-31.3344 31.3344 0 18.0224 13.5168 31.3344 31.3344 31.3344z m0-263.5776h545.1776c22.3232 0 35.84-17.8176 35.84-35.84 0-17.8176-13.312-31.3344-31.3344-31.3344H332.3904c-17.8176 0-31.3344 13.312-31.3344 31.3344 0 17.8176 13.5168 35.84 31.3344 35.84zM158.1056 826.7776c26.8288 0 49.152-22.3232 49.152-49.152s-22.3232-49.152-49.152-49.152-49.152 22.3232-49.152 49.152 22.3232 49.152 49.152 49.152z m49.152-312.9344c0-26.8288-22.3232-49.152-49.152-49.152-26.8288-4.5056-49.152 17.8176-49.152 49.152 0 26.8288 22.3232 49.152 49.152 49.152s49.152-22.3232 49.152-49.152zM158.1056 294.912c26.8288 0 49.152-22.3232 49.152-49.152s-22.3232-49.152-49.152-49.152-49.152 22.3232-49.152 49.152 22.3232 49.152 49.152 49.152z m0 0" /></svg>