<?xml version="1.0" standalone="no"?><!DOCTYPE svg PUBLIC "-//W3C//DTD SVG 1.1//EN" "http://www.w3.org/Graphics/SVG/1.1/DTD/svg11.dtd"><svg class="icon" width="64px" height="64.00px" viewBox="0 0 1024 1024" version="1.1" xmlns="http://www.w3.org/2000/svg"><path fill="#e6e6e6" d="M762.3 323.5c0-142.5-115.5-258.1-258-258.2v-0.1c-68.5 0-134.2 27.2-182.7 75.6C273.2 189.2 246 255 246 323.5c0 96.6 53.7 179.9 132.3 224.2C235.6 599 132.8 733.8 131.4 893.8v5.1c0.2 9.2 2 17.9 2.8 27.1h0.6c1.5 14.3 13.5 25.1 27.9 25.1 14.3 0 26.4-10.8 27.9-25.1h0.9c-0.8-9.7-2.9-19-2.9-28.8 0-83.7 33.2-164 92.4-223.2 59.2-59.2 139.5-92.5 223.2-92.4l28.7-2.9c128.8-14.3 229.4-122.5 229.4-255.2z m-459 0c0-111 89.9-200.9 200.9-200.9s200.9 89.9 200.9 200.9-89.9 200.9-200.9 200.9-200.9-90-200.9-200.9zM725.7 938.6V783.4h140.6c12.4 0 22.6-10.2 22.6-22.6v-4.5c0-12.4-10.2-22.6-22.6-22.6H725.7V605.3c0-12.4-10.2-22.6-22.6-22.6h-6.8c-12.4 0-22.6 10.2-22.6 22.6v128.3H533c-12.4 0-22.6 10.2-22.6 22.6v4.5c0 12.4 10.2 22.6 22.6 22.6h140.6v155.2c0 12.4 10.2 22.6 22.6 22.6h6.8c12.5 0.1 22.7-10.1 22.7-22.5z" /></svg>