<?xml version="1.0" standalone="no"?><!DOCTYPE svg PUBLIC "-//W3C//DTD SVG 1.1//EN" "http://www.w3.org/Graphics/SVG/1.1/DTD/svg11.dtd"><svg class="icon" width="64px" height="64.00px" viewBox="0 0 1024 1024" version="1.1" xmlns="http://www.w3.org/2000/svg"><path fill="#333" d="M512.6 191.3c-101.2 0-183.3 82.1-183.3 183.3s82.1 183.3 183.3 183.3 183.3-82.1 183.3-183.3-82.1-183.3-183.3-183.3z m0 315.4c-72.9 0-132.1-59.1-132.1-132.1s59.1-132.1 132.1-132.1c72.9 0 132.1 59.1 132.1 132.1s-59.2 132.1-132.1 132.1z"  /><path fill="#333" d="M252.2 819.7C254.3 700 369.4 603.5 511 603.5S767.6 700 769.7 819.7h52.7c0-149.6-139.3-270.8-311.1-270.8s-311 121.2-311 270.8h51.9z"  /></svg>